<svg width="43" height="43" viewBox="0 0 43 43" fill="none" xmlns="http://www.w3.org/2000/svg">
<path d="M35.5758 18.1294C35.5758 7.20026 29.6969 3.48255 24.1987 2.65391C24.1987 2.59792 24.2099 2.54193 24.2099 2.47474C24.2099 1.0974 22.9893 0 21.5 0C20.0107 0 18.8349 1.0974 18.8349 2.47474C18.8349 2.54193 18.8349 2.59792 18.8461 2.65391C13.3367 3.49375 7.42422 7.22266 7.42422 18.1518C7.42422 30.8951 4.25521 32.2612 0 35.8445H43C38.7672 32.25 35.5758 30.8727 35.5758 18.1294Z" fill="#414B3B"/>
<path d="M21.5227 43C24.5238 43 26.9873 40.7716 27.312 38.1849H15.7334C16.0469 40.7716 18.5217 43 21.5227 43Z" fill="#414B3B"/>
</svg>
