<svg width="46" height="46" viewBox="0 0 46 46" fill="none" xmlns="http://www.w3.org/2000/svg">
<path d="M36.4336 37.8917V40.3959C32.5843 43.3683 27.8582 44.9807 22.9949 44.9807C18.1315 44.9807 13.4054 43.3683 9.55615 40.3959V37.8917C9.55615 34.3275 10.972 30.9093 13.4923 28.3891C16.0125 25.8688 19.4307 24.4529 22.9949 24.4529C26.5591 24.4529 29.9772 25.8688 32.4975 28.3891C35.0178 30.9093 36.4336 34.3275 36.4336 37.8917ZM27.8449 9.76464C28.9617 10.8765 29.6582 12.3414 29.8157 13.9094C29.9732 15.4775 29.5819 17.0516 28.7085 18.3634C27.8352 19.6751 26.5338 20.6434 25.0264 21.1029C23.519 21.5625 21.8988 21.485 20.4422 20.8835C18.9855 20.2821 17.7826 19.194 17.0385 17.8048C16.2944 16.4156 16.0553 14.8114 16.3618 13.2655C16.6683 11.7197 17.5015 10.3281 18.7194 9.32789C19.9373 8.32772 21.4643 7.78097 23.0403 7.78085C23.9324 7.77831 24.8162 7.95228 25.6408 8.29275C26.4654 8.63322 27.2145 9.13345 27.8449 9.76464Z" fill="white"/>
<path d="M22.9949 1.00854C35.1376 1.00854 44.9809 10.8518 44.9809 22.9946C44.9842 26.356 44.2152 29.6733 42.7332 32.6904C41.2512 35.7075 39.0959 38.3438 36.4336 40.3959V37.8917C36.4336 34.3275 35.0177 30.9093 32.4975 28.3891C29.9772 25.8688 26.559 24.453 22.9949 24.453C19.4307 24.453 16.0125 25.8688 13.4922 28.3891C10.972 30.9093 9.55613 34.3275 9.55613 37.8917V40.3959C6.8938 38.3438 4.73849 35.7075 3.25652 32.6904C1.77455 29.6733 1.00553 26.356 1.0088 22.9946C1.0088 10.8518 10.8521 1.00854 22.9949 1.00854ZM29.8287 14.5693C29.8254 13.0029 29.2793 11.4861 28.2833 10.2771C27.2874 9.06814 25.9032 8.24172 24.3664 7.93857C22.8297 7.63543 21.2353 7.87429 19.8549 8.61451C18.4744 9.35472 17.3932 10.5505 16.7953 11.9983C16.1974 13.4461 16.1198 15.0563 16.5757 16.5549C17.0316 18.0535 17.9928 19.3477 19.2956 20.2173C20.5985 21.0868 22.1625 21.4779 23.7213 21.324C25.2801 21.17 26.7373 20.4806 27.8449 19.373C28.476 18.7426 28.9761 17.9937 29.3166 17.1693C29.6571 16.3449 29.8311 15.4613 29.8287 14.5693Z" fill="#414B3B"/>
<path d="M22.9949 0C19.0741 0.00149307 15.2187 1.00512 11.7948 2.9156C8.37095 4.82607 5.49221 7.57998 3.43192 10.9159C1.37163 14.2517 0.198178 18.0589 0.02298 21.9758C-0.152218 25.8927 0.676651 29.7894 2.43089 33.2959C3.98527 36.3801 6.20865 39.0783 8.93876 41.1936C12.9647 44.3026 17.9078 45.9891 22.9945 45.9891C28.0811 45.9891 33.0242 44.3026 37.0502 41.1936C39.7807 39.0784 42.0044 36.3802 43.559 33.2959C45.3145 29.7895 46.1444 25.8925 45.9698 21.9751C45.7952 18.0577 44.6219 14.25 42.5614 10.9137C40.5009 7.57743 37.6215 4.82339 34.1969 2.91323C30.7723 1.00308 26.9162 0.000241127 22.9949 0ZM10.5647 39.8933V37.8917C10.5647 34.595 11.8743 31.4333 14.2054 29.1022C16.5366 26.7711 19.6982 25.4615 22.9949 25.4615C26.2916 25.4615 29.4533 26.7711 31.7844 29.1022C34.1155 31.4333 35.4251 34.595 35.4251 37.8917V39.8933C31.8224 42.543 27.4671 43.9721 22.9949 43.9721C18.5227 43.9721 14.1675 42.543 10.5647 39.8933ZM37.4422 38.2041V37.8915C37.4422 29.9253 30.9611 23.4442 22.9949 23.4442C19.1633 23.4444 15.4886 24.9666 12.7793 27.676C10.0699 30.3854 8.54779 34.06 8.54766 37.8917V38.2043C6.47709 36.2503 4.82928 33.8924 3.70607 31.2763C2.58287 28.6602 2.00813 25.8416 2.01739 22.9946C2.01739 11.4276 11.4279 2.01707 22.9949 2.01707C34.5619 2.01707 43.9725 11.4276 43.9725 22.9946C43.9817 25.8416 43.4069 28.6601 42.2837 31.2762C41.1605 33.8922 39.5127 36.2501 37.4422 38.2041Z" fill="#414B3B"/>
<path d="M23.0402 6.77228C21.2405 6.77585 19.4977 7.40308 18.1086 8.54718C16.7194 9.69128 15.7697 11.2815 15.4212 13.0471C15.0727 14.8127 15.347 16.6445 16.1973 18.2306C17.0476 19.8167 18.4214 21.0591 20.0847 21.7461C21.7481 22.4332 23.5981 22.5225 25.3199 21.9988C27.0417 21.4752 28.5288 20.3709 29.5279 18.8741C30.527 17.3772 30.9764 15.5804 30.7996 13.7894C30.6228 11.9984 29.8307 10.3241 28.5582 9.05157C27.835 8.32543 26.9748 7.75006 26.0276 7.35881C25.0804 6.96755 24.065 6.76819 23.0402 6.77228ZM27.1314 18.6601C26.1844 19.6118 24.9366 20.2055 23.6007 20.3399C22.2649 20.4744 20.9238 20.1413 19.8061 19.3974C18.6884 18.6536 17.8634 17.545 17.4717 16.2608C17.08 14.9766 17.146 13.5964 17.6583 12.3554C18.1706 11.1144 19.0976 10.0895 20.2811 9.4556C21.4646 8.82168 22.8314 8.61796 24.1483 8.87917C25.4652 9.14037 26.6508 9.85033 27.5027 10.888C28.3547 11.9256 28.8203 13.2267 28.8202 14.5693C28.8233 15.329 28.6757 16.0817 28.3858 16.7839C28.0959 17.4861 27.6695 18.1238 27.1314 18.6601Z" fill="#414B3B"/>
</svg>
